/* XPM */
static char * eagle_xpm[] = {
"58 64 54 1",
" 	c #383838",
".	c #545454",
"+	c #484848",
"@	c #EC0000",
"#	c #D40000",
"$	c #A40000",
"%	c #E00000",
"&	c #C80000",
"*	c #FCF400",
"=	c #B00000",
"-	c #880000",
";	c #640000",
">	c #2C2C2C",
",	c #BC0000",
"'	c #7C0000",
")	c #980000",
"!	c #700000",
"~	c #E4D800",
"{	c #CCC400",
"]	c #848400",
"^	c #B4B4B4",
"/	c #A86840",
"(	c #9C9C00",
"_	c #585400",
":	c #707070",
"<	c #7C7C7C",
"[	c #543C1C",
"}	c #989898",
"|	c #FC2020",
"1	c #400000",
"2	c #FC0000",
"3	c #A8A8A8",
"4	c #C0C0C0",
"5	c #D0D0D0",
"6	c #8C8C8C",
"7	c #6C0070",
"8	c #646464",
"9	c #580058",
"0	c #600064",
"a	c #500050",
"b	c #B45400",
"c	c #CC6000",
"d	c #FC7800",
"e	c #480048",
"f	c #FC8820",
"g	c #840084",
"h	c #400040",
"i	c #4C0000",
"j	c #9C009C",
"k	c #404040",
"l	c #303030",
"m	c #580000",
"n	c #744C28",
"o	c #202020",
"                                                          ",
". .+++++.++++++.+ +++++++......+++++++++.......++++   ++..",
" @@#########$++.@@##################$+ .@@@@%%%%%%#####&&&",
"+*&==#-$#-&$;>+.@,-,-,-,',),),',',&$!>+ #$&=&==&!&'&=&-=$'",
"~{]^^^^^^^^^^^^^^^^^^^^^^^^^^^^^^^^^^^^^^^^^^^^^^^^^^^^^^^",
"/(_::<<<<<<<<<<<<<<<<<<<<<<<<<<<<<<<<<<<<<<<<<<<<<<<<<<<<<",
"+[$<<<<}}}}}}}}}}}}}}}}}}}}}}}}}}}}}}}}}}}}}}}}}}}}}}}}}}<",
"+,'}<|$11.!!!!!!!!!!!!!!!!!!!!!!!!!!!!!!!!!!!!!!!!$=2%<111",
"+,$3<$4}:1<34544^^^^^^^^^^^^^^^^^^^^^^^^^^^^^^^^44444<1<:}",
"+';^}1}4}<6}336<354^^^^^^^^^^^^^^^^^^^^^^^^^^^^6784^333:35",
"++>531}34}<<}}.9:35544^^^^^^^^^^^^^^^^^^^^^^44680a}33}}35<",
".  5^.:}^4}<<6a999<3544444^^a:.aaaabcd^^^^446809aa}}}}3548",
"@##^51<}3^4}:8+eaa99<3^^^^^^aaaaa<abbcf^^^6809aaa+}}}3443<",
"=--^5!}6}3^89:8+eeaa999<6^^^:aaaaaab6^^680099aaa+::a83436<",
"-$-^5=3}6}870+:8+eeeeg999:6^^aaaaaa6^68009gaaae+:.70083}<6",
"!$$^^)^}66e0709+8+ ee7e9999^^aaaaaa^^9009a7ee +8+a0077}6<6",
"$--^^-43}6ee07009+. hheee9.^^aaaaaa^^.eeeeee ++ea907776<66",
"!$;^^!5^3}+ee07709ehhhhee6^^:aaaaaa:^^6eeehhheea90777.6<6}",
"!=;^^!54^}8+e9007097hhhe6a:^aaaaaaaa^:e6ehhe9ee90777.<<663",
"1ii^^!558a:..+90079gahheaea^^aaaaaa^^eeeeee97a9007.<8++8}3",
">>>^^!^59ae+...+0079gaaaeae<8aaaaaa8<eeeeee79900.6<8+hhe}3",
"..+^^!^509aeeh ++.89999eeeaaaaaaaaaaeeeeeeaa9.86<.aehhhe33",
".@@44'4^00aaehhhee9j999eeaaaaaaaaaaaeeeeea99j999aaehhhh933",
".@-55)54909aeehhheeg999aaaaaaaaaaaaaaeeaa999j999aeehhhe9}3",
" @=44-4}:90aaehhehe799aaaaaa..8::8..aaa99999g99aeehhhhe:}3",
"+,;^^'^}}:+9aeeeaea97aaaaaaa87j77j78aa99999g99aeeehhh+:}}^",
"+,=^^!^a9+8::88.+klea9g9aaaa<j7777j<a9a99g999..+k k+.8+074",
".,!33!3aa9999aeaeaeaea9g7aaa.777777.aa97g9999aeeeeheea9075",
"+&$33;3aaa999aaeaeaeaaaaaaaa<j7777j<a9a9a999aeeeeeeea99004",
"+$)}}i}aa9a9a9aaaaaaaaaaaaaa.7j+7j7.aa9a999aaeeeeeeeaa0704",
"++ 33m3aaa9a9aaaaaa.aaaa.aaa<.7+77.<a9a.9aaa.eeeeeeeaa00a^",
"...33;38aaaaaaaa+:aaaaa.aaaa.<<..<<.aaa9.aaeae:+eeeaa9098^",
",,,^^!^}8aaaa+::aaaaaa:aaaaaaa.<<.aaaa9aa:aaeeea::+aa998}^",
"$=$^^!^^^}}}}:aaaaaaa:aaaaaaaaaaaaaaaaaaaa:eaeeeea:}}}}^33",
"$'-^^!^^}}:aaaaaaaaa:aaaaaaaaaaaaaaaaaaaaaa:eaeaea999:}}}}",
"-'$^^!^^aaaaaaaaaaa:aaaa:a:aaaaaaaaaa:a:aaaa:eaea99999aa66",
"$-'^^!^^aaaaaaaaaa:aaaa8}:aaaaaaaaaaaa:}8aaaa:aaaa9999aa}}",
"$-'^^'^^:aaaaaaaa:aaaaa}aaaaaaaaaaaaaaaa}aaaaa:aa99999a:}}",
"!!-^^'^^}aaaaaaa:aaaaa}aaaaaaaaaaaaaaaaaa}aaaaa:aa9a9aa}33",
"11i^^-^^^:aaaaa:aaaaaaaaaaaaaaaaaaaaaaaaaaaaaaaa:aaa9a:^^^",
">>>44-444^:aaa:aaaaaa}aaaaaaaaaaaaaaaaaaaa}aaaaaa:aaa:^^^^",
".+.55$555^^}}}}aaaaa}^jaaaaaa:aaaa:aaaaaaj^}aaaaa}}}}^^^^^",
" @#44)444^^^^^}}aaa}^^^:aaaaaaaaaaaaaaaa:^^^}aaa}}^^^^^^44",
".#$^^)^^^^^^^<bb<^^^^<baaaaaaaaaaaaaaaaaab<^^^^<bb<^^44444",
"+#$^^-^^^^^^^bbbbbbbbbbnnaa:^aaaaaa^:aannbbbbbbbbbb4444555",
"+#-^^-^^^^^^^^<8nbbbbnn<^^^^aaaaaaaa^^^^<nnbbbbn8<^^^44444",
" #$^^'^^^^^^^6bbbbbbbbbb^^^aaaaaaaaaa^^^bbbbbbbbbb6^^^^^44",
".#$33!3333^^^bnn6bbn^6nb^<aaaaaaaaaaaa<^bn6^nbb6nnb^^^^^^^",
" &$33!333333^n<6^bn^^^^<.aaaaaaaaaaaaaa.<^^^^nb^6<n^^^^^^^",
".$;^^!^^^^^^^^^^^bn^^<.aaaaaaaaaaaaaaaaaa.<^^nb^^^^^^^^^^^",
" +>^^!}^^^^^^^^^^6b^aaaaaaaaa<aaaa<aaaaaaaaa^b6^^^^^^^^^^}",
". .^^!<^^^^^^^^^^^^^<.aaaaa8^aaaaaa^8aaaaa.<^^^^^^^^^^^^^<",
"###^^<!<}^^^^^^^^^^^^^<.aa8^<aaaaaa<^8aa.<^^^^^^^^^^^^^}<!",
"'$m<^^<!!!<}^^^^^^^^^^^^^^^^aaaaaaaa^^^^^^^^^^^^^^^^}6!!!<",
"$''m<^^^}<!!!!<}^^^^^^^^^^^^8aaaaaa8^^^^^^^^^^^^}<!!!!6}^^",
"$'mmm.<^^^^^}<!!!<}^^^^^^^^^^8aaaa8^^^^^^^^^^}<!!!<}^^^^^<",
"')mmmmm.<^^^^^^}<!!!<}^^^^^^^^8aa8^^^^^^^^}<!!!<}^^^^^<.mm",
";$'$;m;mmmm.<^^^^^}<!!!<}^^^^^^88^^^^^^}<!!!<}^^^^^<.mmmmm",
";$'';));mmmmmm.<^^^^^}<!!!!<}^^^^^^}<!!!!<}^^^^^<.mmmmmmm!",
"')m$;;-;''$mmmmmm1.<^^^^^}<!!!<}}<!!!<}^^^^^<.1>>>mmmm$m$!",
"iiiiiiiiiiiiiiii11oo>.<^^^^^}<!!!!<}^^^^<.iii11o>>m11iiiii",
">>>>>>>>>>>>>>>>>>>ooooo>.<^^^^^^^^^^<.ooooo>ooo>>>>>>>>>o",
" . .   +++++.    >>>>>>>ooooo.<^^<.>ooooo>>>>>>>>  ++.++++",
"...................+   >>ooooooooooooooooo>   ++.........."};
